<svg width="391.862" height="254.575" viewBox="0 0 103.68 67.356" xmlns="http://www.w3.org/2000/svg"><g transform="translate(70.58 33.756)"><rect style="fill:#fafafa" width="29.032" height="29.032" x="3.068" y="3.568" ry="2.696"/><path style="fill:#dedede" d="M11.69 32.153h20l-.088-20c-.91 12.171-7.634 18.635-19.913 20z"/><rect style="fill:none;stroke:#4c4e52;stroke-width:2" width="29.032" height="29.032" x="3.068" y="3.568" ry="2.696"/><path style="fill:none;stroke:#4c4e52;stroke-width:2" d="M26 16H4m16.485-6 6 6-6 6" transform="translate(6.239 6.703) scale(.71132)"/></g><g transform="translate(34.256 -2.568)"><rect style="fill:#fafafa" width="29.032" height="29.032" x="3.068" y="3.568" ry="2.696"/><path style="fill:#dedede" d="M11.69 32.153h20l-.088-20c-.91 12.171-7.634 18.635-19.913 20z"/><rect style="fill:none;stroke:#4c4e52;stroke-width:2" width="29.032" height="29.032" x="3.068" y="3.568" ry="2.696"/><path style="fill:none;stroke:#4c4e52;stroke-width:2" d="M26 16H4m16.485-6 6 6-6 6" transform="matrix(0 -.71132 .71132 0 6.203 29.43)"/></g><g transform="translate(-2.068 33.756)"><rect style="fill:#fafafa" width="29.032" height="29.032" x="3.068" y="3.568" ry="2.696"/><path style="fill:#dedede" d="M11.69 32.153h20l-.088-20c-.91 12.171-7.634 18.635-19.913 20z"/><rect style="fill:none;stroke:#4c4e52;stroke-width:2" width="29.032" height="29.032" x="3.068" y="3.568" ry="2.696"/><path style="fill:none;stroke:#4c4e52;stroke-width:2" d="M26 16H4m16.485-6 6 6-6 6" transform="rotate(180 14.465 14.733) scale(.71132)"/></g><g transform="translate(34.256 33.756)"><rect style="fill:#fafafa" width="29.032" height="29.032" x="3.068" y="3.568" ry="2.696"/><path style="fill:#dedede" d="M11.69 32.153h20l-.088-20c-.91 12.171-7.634 18.635-19.913 20z"/><rect style="fill:none;stroke:#4c4e52;stroke-width:2" width="29.032" height="29.032" x="3.068" y="3.568" ry="2.696"/><path style="fill:none;stroke:#4c4e52;stroke-width:2" d="M26 16H4m16.485-6 6 6-6 6" transform="rotate(90 11.113 17.852) scale(.71132)"/></g></svg>