<svg fill="#696969" width="506.249" height="566.851" viewBox="0 0 35.437 39.68" xmlns="http://www.w3.org/2000/svg"><path d="M2.812 39.68c.938 0 1.735-.375 2.672-.914l27.328-15.797c1.946-1.149 2.625-1.899 2.625-3.14 0-1.243-.68-1.993-2.625-3.118L5.484.89C4.547.35 3.75 0 2.812 0 1.078 0 0 1.313 0 3.352v32.953c0 2.039 1.078 3.375 2.812 3.375zm1.196-4.477c-.14 0-.235-.094-.235-.281V4.734c0-.187.094-.28.235-.28.093 0 .187.046.281.116l25.945 15c.117.07.211.14.211.258 0 .117-.094.211-.21.258L4.288 35.109c-.094.047-.187.094-.281.094z"/></svg>