<svg xmlns="http://www.w3.org/2000/svg" xmlns:xlink="http://www.w3.org/1999/xlink" viewBox="0 0 1066.7 559.67"><defs><path id="f" d="M0 1070h5000v1972.5H0z"/><path id="g" fill="#abd8d8" d="M3054.6 2398.6H1570v371.43h1484.6V2398.6" clip-path="url(#a)"/><path id="h" fill="#fff" d="M2151.5 2543.2c-18.91 0-34.25 14.23-34.25 31.8 0 17.56 15.34 31.8 34.25 31.8h321.51c18.91 0 34.24-14.24 34.24-31.8 0-17.57-15.33-31.8-34.24-31.8H2151.5" clip-path="url(#b)"/><path id="i" fill="#abd8d8" d="M3054.6 1952.8H1570v371.44h1484.6V1952.8" clip-path="url(#c)"/><path id="j" fill="#fff" d="M2151.5 2097.5c-18.91 0-34.25 14.25-34.25 31.81s15.34 31.79 34.25 31.79h321.51c18.91 0 34.24-14.23 34.24-31.79s-15.33-31.81-34.24-31.81H2151.5" clip-path="url(#d)"/><path id="k" fill="#abd8d8" d="M3054.6 1510H1570v371.43h1484.6V1510" clip-path="url(#e)"/></defs><defs><clipPath id="q"><use xlink:href="#f"/></clipPath><clipPath id="r"><path d="M3392 4285v715h1126v-715z"/></clipPath><clipPath id="s"><path d="M2449.3 3837.3c12.74-12.73 12.74-33.37 0-46.1l-137.33-137.34c-12.73-12.73-33.37-12.73-46.1 0l-137.35 137.34c-12.73 12.73-12.73 33.37 0 46.1l137.35 137.34c12.73 12.74 33.37 12.74 46.1 0l137.33-137.34"/></clipPath><clipPath id="t"><path d="M3683.3 1495c-8.47 0-15.32 6.15-15.32 13.75s6.85 13.75 15.32 13.75 15.32-6.15 15.32-13.75-6.85-13.75-15.32-13.75"/></clipPath><clipPath id="l"><use xlink:href="#f"/></clipPath><clipPath id="m"><use xlink:href="#f"/></clipPath><clipPath id="n"><use xlink:href="#f"/></clipPath><clipPath id="o"><use xlink:href="#f"/></clipPath><clipPath id="p"><use xlink:href="#f"/></clipPath><clipPath id="a"><use xlink:href="#f"/></clipPath><clipPath id="b"><use xlink:href="#f"/></clipPath><clipPath id="c"><use xlink:href="#f"/></clipPath><clipPath id="d"><use xlink:href="#f"/></clipPath><clipPath id="e"><use xlink:href="#f"/></clipPath></defs><path fill="#e9e0c8" d="M1068.177.059v261.613h-392.42V.059h392.42"/><path fill="#f7f3ea" d="M818.744 16.027H675.758V.059h142.988v15.968"/><path fill="#f4ede0" d="M973.107 16.027H830.12V.059h142.987v15.968"/><path fill="#fff" d="M1068.078 16.027h-83.59V.059h83.59v15.968"/><path fill="#f4ede0" d="M1068.177 25.184v15.969h-93.473v-15.97h93.474"/><path fill="#f7f3ea" d="M843.577 25.184h121.457v15.968H843.577V25.184"/><path fill="#fff" d="M762.906 25.184h71.007v15.968h-71.007V25.184"/><path fill="#f4ede0" d="M675.757 25.184h71.007v15.968h-71.007V25.184"/><path fill="#fff" d="M855.852 66.278H675.757V50.31h180.095v15.968"/><path fill="#f4ede0" d="M1007.985 66.278H864.998V50.31h142.987v15.968"/><path fill="#fff" d="M1068.177 50.309v15.97h-51.872v-15.97h51.872m-140.11 25.13h102.51v15.97h-102.51v-15.97"/><path fill="#f7f3ea" d="M817.4 75.44h102.51v15.969H817.4v-15.97"/><path fill="#fff" d="M749.312 75.44h59.93v15.969h-59.93v-15.97"/><path fill="#f7f3ea" d="M675.757 75.44h59.93v15.969h-59.93v-15.97m392.42 0v15.97h-27.17v-15.97h27.17"/><path fill="#f4ede0" d="M818.744 114.305H675.758v-15.97h142.988v15.97m154.36 0H830.12v-15.97h142.987v15.97"/><path fill="#fff" d="M1068.078 114.305h-83.59v-15.97h83.59v15.97"/><path fill="#f4ede0" d="M950.304 123.462h111.548v15.969H950.304v-15.97"/><path fill="#f7f3ea" d="M829.879 123.462h111.547v15.969H829.879v-15.97"/><path fill="#fff" d="M755.79 123.462H821v15.969h-65.21v-15.97"/><path fill="#f4ede0" d="M675.757 123.462h65.21v15.969h-65.21v-15.97m180.095 41.095H675.757v-15.968h180.095v15.968m152.133 0H864.998v-15.968h142.987v15.968"/><path fill="#fff" d="M1068.177 148.587v15.969h-51.872v-15.97h51.872M919.8 173.719h99.15v15.968H919.8v-15.968"/><path fill="#f7f3ea" d="M812.759 173.718h99.15v15.968h-99.15v-15.968"/><path fill="#fff" d="M746.9 173.718h57.963v15.968H746.9v-15.968"/><path fill="#f7f3ea" d="M675.757 173.718h57.963v15.968h-57.963v-15.968m392.42 0v15.969h-39.137v-15.97h39.137M818.744 212.58H675.758v-15.968h142.988v15.968"/><path fill="#f4ede0" d="M973.107 212.58H830.12v-15.968h142.987v15.968"/><path fill="#fff" d="M1068.078 212.58h-83.59v-15.968h83.59v15.968"/><path fill="#f4ede0" d="M1068.177 221.739v15.97h-80.77v-15.97h80.77"/><path fill="#f7f3ea" d="M850.709 221.739h126.62v15.968h-126.62v-15.968"/><path fill="#fff" d="M766.61 221.739h74.02v15.968h-74.02v-15.968"/><path fill="#f4ede0" d="M675.757 221.739h74.02v15.968h-74.02v-15.968"/><path fill="#fff" d="M855.852 261.672H675.757v-15.97h180.095v15.97"/><path fill="#f4ede0" d="M1007.985 261.672H864.998v-15.97h142.987v15.97"/><path fill="#f7f3ea" d="M1068.177 245.704v15.968h-51.872v-15.968h51.872"/><path fill="#e9e0c8" d="M285.633.299v261.613h-392.42V.299h392.42"/><path fill="#f7f3ea" d="M36.2 16.267h-142.986V.299H36.2v15.968"/><path fill="#f4ede0" d="M190.563 16.267H47.573V.299h142.99v15.968"/><path fill="#fff" d="M285.534 16.267h-83.591V.299h83.59v15.968"/><path fill="#f4ede0" d="M285.633 25.424v15.969h-93.475v-15.97h93.475"/><path fill="#f7f3ea" d="M61.033 25.424h121.456v15.968H61.034V25.424"/><path fill="#fff" d="M-19.64 25.424h71.01v15.968h-71.01V25.424"/><path fill="#f4ede0" d="M-106.787 25.424h71.007v15.968h-71.007V25.424"/><path fill="#fff" d="M73.307 66.518h-180.093V50.55H73.307v15.968"/><path fill="#f4ede0" d="M225.44 66.518H82.454V50.55H225.44v15.968"/><path fill="#fff" d="M285.633 50.549v15.97H233.76v-15.97h51.873m-140.11 25.13h102.51v15.97h-102.51v-15.97"/><path fill="#f7f3ea" d="M34.855 75.68h102.51v15.969H34.856v-15.97"/><path fill="#fff" d="M-33.232 75.68h59.93v15.969h-59.93v-15.97"/><path fill="#f7f3ea" d="M-106.787 75.68h59.93v15.969h-59.93v-15.97m392.42 0v15.97h-27.171v-15.97h27.17"/><path fill="#f4ede0" d="M36.2 114.545h-142.986v-15.97H36.2v15.97m154.363 0H47.573v-15.97h142.99v15.97"/><path fill="#fff" d="M285.534 114.545h-83.591v-15.97h83.59v15.97"/><path fill="#f4ede0" d="M167.76 123.702h111.547v15.969H167.76V123.7"/><path fill="#f7f3ea" d="M47.334 123.702H158.88v15.969H47.334V123.7"/><path fill="#fff" d="M-26.755 123.702h65.21v15.969h-65.21V123.7"/><path fill="#f4ede0" d="M-106.787 123.702h65.21v15.969h-65.21V123.7m180.094 41.095h-180.093v-15.968H73.307v15.968m152.134 0H82.453v-15.968H225.44v15.968"/><path fill="#fff" d="M285.633 148.827v15.969H233.76v-15.97h51.873m-148.377 25.132h99.152v15.968h-99.152v-15.968"/><path fill="#f7f3ea" d="M30.214 173.958h99.152v15.968H30.214v-15.968"/><path fill="#fff" d="M-35.644 173.958h57.963v15.968h-57.963v-15.968"/><path fill="#f7f3ea" d="M-106.787 173.958h57.963v15.968h-57.963v-15.968m392.42 0v15.969h-39.137v-15.97h39.137M36.2 212.82h-142.986v-15.968H36.2v15.968"/><path fill="#f4ede0" d="M190.563 212.82H47.573v-15.968h142.99v15.968"/><path fill="#fff" d="M285.534 212.82h-83.591v-15.968h83.59v15.968"/><path fill="#f4ede0" d="M285.633 221.979v15.97h-80.77v-15.97h80.77"/><path fill="#f7f3ea" d="M68.164 221.979h126.62v15.968H68.165v-15.968"/><path fill="#fff" d="M-15.934 221.979h74.02v15.968h-74.02v-15.968"/><path fill="#f4ede0" d="M-106.787 221.979h74.02v15.968h-74.02v-15.968"/><path fill="#fff" d="M73.307 261.912h-180.093v-15.97H73.307v15.97"/><path fill="#f4ede0" d="M225.44 261.912H82.454v-15.97H225.44v15.97"/><path fill="#f7f3ea" d="M285.633 245.944v15.968H233.76v-15.968h51.873"/><path fill="#e9e0c8" d="M283.737.232v261.612h392.42V.232h-392.42"/><path fill="#f7f3ea" d="M533.17 16.2h142.987V.233H533.17V16.2"/><path fill="#f4ede0" d="M378.807 16.2h142.988V.233H378.807V16.2"/><path fill="#fff" d="M283.836 16.2h83.59V.233h-83.59V16.2"/><path fill="#f4ede0" d="M283.737 25.357v15.97h93.474v-15.97h-93.474"/><path fill="#f7f3ea" d="M508.337 25.357H386.88v15.969h121.457v-15.97"/><path fill="#fff" d="M589.008 25.357H518v15.969h71.007v-15.97"/><path fill="#f4ede0" d="M676.157 25.357H605.15v15.969h71.007v-15.97"/><path fill="#fff" d="M496.062 66.452h180.095v-15.97H496.062v15.97"/><path fill="#f4ede0" d="M343.929 66.452h142.987v-15.97H343.929v15.97"/><path fill="#fff" d="M283.737 50.483v15.969h51.872v-15.97h-51.872m140.109 25.132h-102.51v15.968h102.51V75.614"/><path fill="#f7f3ea" d="M534.514 75.614h-102.51v15.968h102.51V75.614"/><path fill="#fff" d="M602.602 75.614h-59.93v15.968h59.93V75.614"/><path fill="#f7f3ea" d="M676.157 75.614h-59.93v15.968h59.93V75.614m-392.42 0v15.968h27.17V75.614h-27.17"/><path fill="#f4ede0" d="M533.17 114.479h142.987v-15.97H533.17v15.97m-154.363 0h142.988v-15.97H378.807v15.97"/><path fill="#fff" d="M283.836 114.479h83.59v-15.97h-83.59v15.97"/><path fill="#f4ede0" d="M401.609 123.635H290.064v15.969H401.61v-15.97"/><path fill="#f7f3ea" d="M522.035 123.635H410.488v15.969h111.547v-15.97"/><path fill="#fff" d="M596.124 123.635h-65.21v15.969h65.21v-15.97"/><path fill="#f4ede0" d="M676.157 123.635h-65.21v15.969h65.21v-15.97m-180.095 41.095h180.095V148.76H496.062v15.968m-152.133 0h142.987V148.76H343.929v15.968"/><path fill="#fff" d="M283.737 148.76v15.97h51.872v-15.97h-51.872m148.377 25.13h-99.152v15.969h99.15V173.89"/><path fill="#f7f3ea" d="M539.155 173.89h-99.151v15.969h99.15V173.89"/><path fill="#fff" d="M605.014 173.89H547.05v15.969h57.963V173.89"/><path fill="#f7f3ea" d="M676.157 173.89h-57.963v15.969h57.963V173.89m-392.42 0v15.969h39.137v-15.97h-39.137m249.433 38.864h142.987v-15.97H533.17v15.969"/><path fill="#f4ede0" d="M378.807 212.754h142.988v-15.97H378.807v15.969"/><path fill="#fff" d="M283.836 212.754h83.59v-15.97h-83.59v15.969"/><path fill="#f4ede0" d="M283.737 221.913v15.969h80.77v-15.97h-80.77"/><path fill="#f7f3ea" d="M501.206 221.912H374.584v15.969h126.62v-15.97"/><path fill="#fff" d="M585.304 221.912h-74.021v15.969h74.02v-15.97"/><path fill="#f4ede0" d="M676.157 221.912h-74.02v15.969h74.02v-15.97"/><path fill="#fff" d="M496.062 261.844h180.095v-15.968H496.062v15.969"/><path fill="#f4ede0" d="M343.929 261.844h142.987v-15.968H343.929v15.969"/><path fill="#f7f3ea" d="M283.737 245.877v15.968h51.872v-15.968h-51.872"/><path fill="#ccdfe0" d="M.338 525.77h1066.84V262.778H.339Z"/><use xlink:href="#g" clip-path="url(#a)" transform="matrix(.13669 0 0 -.13333 632.252 668.497)"/><use xlink:href="#h" clip-path="url(#b)" transform="matrix(.13669 0 0 -.13333 632.252 668.497)"/><use xlink:href="#i" clip-path="url(#c)" transform="matrix(.13669 0 0 -.13333 632.252 668.497)"/><use xlink:href="#j" clip-path="url(#d)" transform="matrix(.13669 0 0 -.13333 632.252 668.497)"/><use xlink:href="#k" clip-path="url(#e)" transform="matrix(.13669 0 0 -.13333 632.252 668.497)"/><use xlink:href="#g" clip-path="url(#l)" transform="matrix(.13669 0 0 -.13333 -269.086 668.503)"/><use xlink:href="#h" clip-path="url(#m)" transform="matrix(.13669 0 0 -.13333 -269.086 668.503)"/><use xlink:href="#i" clip-path="url(#n)" transform="matrix(.13669 0 0 -.13333 -269.086 668.503)"/><use xlink:href="#j" clip-path="url(#o)" transform="matrix(.13669 0 0 -.13333 -269.086 668.503)"/><use xlink:href="#k" clip-path="url(#p)" transform="matrix(.13669 0 0 -.13333 -269.086 668.503)"/><path fill="#f3ae7a" d="M1068.473 286.51H.333v-24.925h1068.14v24.926"/><g clip-path="url(#q)" transform="matrix(.13333 0 0 -.13333 199.249 668.434)"><path fill="#fff" d="M-180 1510h1530v970H-180Z"/><path fill="#e7e1e1" d="M1194.2 1810c-18.92 0-34.25 15.33-34.25 34.25v321.5c0 18.92 15.33 34.25 34.25 34.25 18.91 0 34.25-15.33 34.25-34.25v-321.5c0-18.92-15.34-34.25-34.25-34.25"/><use xlink:href="#g"/><use xlink:href="#h"/><use xlink:href="#i"/><use xlink:href="#j"/><use xlink:href="#k"/><path fill="#fff" d="M2151.5 1654.6c-18.91 0-34.25 14.24-34.25 31.81 0 17.55 15.34 31.79 34.25 31.79h321.51c18.91 0 34.24-14.24 34.24-31.79 0-17.57-15.33-31.81-34.24-31.81H2151.5"/><path fill="#abd8d8" d="M4705.6 2398.6H3221v371.43h1484.6V2398.6"/><path fill="#fff" d="M3802.5 2543.2c-18.92 0-34.25 14.23-34.25 31.8 0 17.56 15.33 31.8 34.25 31.8H4124c18.92 0 34.25-14.24 34.25-31.8 0-17.57-15.33-31.8-34.25-31.8h-321.5"/><path fill="#abd8d8" d="M4705.6 1952.8H3221v371.44h1484.6V1952.8"/><path fill="#fff" d="M3802.5 2097.5c-18.92 0-34.25 14.25-34.25 31.81s15.33 31.79 34.25 31.79H4124c18.92 0 34.25-14.23 34.25-31.79s-15.33-31.81-34.25-31.81h-321.5"/><path fill="#abd8d8" d="M3221 1510h1484.6v371.43H3221Z"/><path fill="#fff" d="M3802.5 1654.6c-18.92 0-34.25 14.24-34.25 31.81 0 17.55 15.33 31.79 34.25 31.79H4124c18.92 0 34.25-14.24 34.25-31.79 0-17.57-15.33-31.81-34.25-31.81h-321.5"/></g><path fill="#fbc7bc" d="M578.013 110.448H447.907v-153.33h130.106v153.33"/><path fill="#fff" d="M491.708 99.888c-2.5 0-4.526-1.705-4.526-3.81 0-2.103 2.026-3.81 4.526-3.81h42.489c2.5 0 4.525 1.707 4.525 3.81 0 2.105-2.025 3.81-4.525 3.81h-42.49"/><path fill="#fbc7bc" d="M441.883 110.448H311.778v-153.33h130.106v153.33"/><path fill="#fff" d="M355.592 99.888c-2.502 0-4.527-1.705-4.527-3.81 0-2.103 2.025-3.81 4.527-3.81h42.487c2.5 0 4.528 1.707 4.528 3.81 0 2.105-2.027 3.81-4.528 3.81h-42.487"/><path fill="#fbc7bc" d="M305.766 110.448H175.66v-153.33h130.106v153.33"/><path fill="#fff" d="M219.475 99.888c-2.5 0-4.526-1.705-4.526-3.81 0-2.103 2.026-3.81 4.526-3.81h42.488c2.5 0 4.526 1.707 4.526 3.81 0 2.105-2.026 3.81-4.526 3.81h-42.488"/><path fill="#fbc7bc" d="M169.796 110.448H39.69v-153.33h130.106v153.33"/><path fill="#fff" d="M83.497 99.888c-2.5 0-4.526-1.705-4.526-3.81 0-2.103 2.026-3.81 4.526-3.81h42.489c2.5 0 4.525 1.707 4.525 3.81 0 2.105-2.026 3.81-4.526 3.81H83.497"/><path fill="#9bd3dd" d="M626.905 112.074h199.328V97.117H626.905z"/><path fill="#83becc" d="M651.57 97.115h149.997V-23.55H651.57z"/><g fill="#8fc4d0" clip-path="url(#r)" transform="matrix(.13333 0 0 -.13333 199.249 668.434)"><path d="M3392.5 4920.1v79.86h144.14l-144.14-79.86m0-507.3v332.68l459.34 254.48h600.48l-1059.8-587.16M3610.9 4285h-111.37l1018 563.98v-61.69L3610.92 4285m720.08 0h-491.78l678.24 375.76V4388.3L4331 4285"/></g><path fill="#e2dddc" d="M783.568 191.779a7.62 7.62 0 0 0-4.636 1.57 9.923 9.923 0 0 0-2.955-1.266c-1.268-6.81-7.23-11.97-14.41-11.97-6.12 0-11.36 3.75-13.556 9.076a9.965 9.965 0 0 0-3.776-.743c-3.994 0-7.431 2.348-9.033 5.733a7.98 7.98 0 0 0-.966-.067 7.666 7.666 0 0 0-7.667 7.667 7.666 7.666 0 0 0 7.667 7.666 7.634 7.634 0 0 0 5.327-2.16 9.95 9.95 0 0 0 4.672 1.16 9.961 9.961 0 0 0 7.204-3.074 14.608 14.608 0 0 0 10.13 4.074c1.662 0 3.253-.29 4.743-.798a9.959 9.959 0 0 0 7.256 3.132c3.62 0 6.78-1.93 8.536-4.81a7.666 7.666 0 0 0 9.13-7.524 7.666 7.666 0 0 0-7.666-7.666"/><path fill="#83becc" d="M826.234 262.924h-199.33v-11.666h199.328v11.666"/><path fill="#ef9e3f" d="M818.46 217.272a3.347 3.347 0 0 1-3.348 3.347h-25.798a3.348 3.348 0 0 1 0-6.695h25.798c1.85 0 3.348 1.5 3.348 3.348"/><path fill="#f3b562" d="M760.088 204.966H724.61s1.853 46.237 10.49 46.237h47.203c8.638 0 10.489-46.237 10.489-46.237h-32.705"/><path fill="#ef9e3f" d="M794.78 204.686a2.041 2.041 0 0 1-2.04 2.04h-68.087a2.042 2.042 0 0 1 0-4.082h68.088c1.126 0 2.04.915 2.04 2.042"/><path fill="#f3ae7a" d="M536.094 134.367a2.344 2.344 0 0 1-2.345 2.346H364.126a2.346 2.346 0 1 1 0-4.69h169.623a2.344 2.344 0 0 1 2.345 2.344"/><path fill="#62c5c0" d="M505.788 139.06a1.36 1.36 0 0 1-2.72 0v-7.062a1.36 1.36 0 1 1 2.72 0v7.063"/><path fill="#ef95b8" d="M525.814 156.807a4.344 4.344 0 0 1 0 6.146l-18.31 18.312a4.346 4.346 0 0 1-6.147 0l-18.312-18.312a4.346 4.346 0 0 1 0-6.146l18.312-18.312a4.344 4.344 0 0 1 6.147 0l18.31 18.312"/><g clip-path="url(#s)" transform="matrix(.13333 0 0 -.13333 199.249 668.434)"><path fill="#ea7fab" d="m2530 3763.5-101.04-101.06-30.35 30.35 65.71 65.71 29.75-29.75 4.98 5.01-29.74 29.74 30.35 30.34zm-136.41-136.41-30.35 30.35 30.35 30.34 30.35-30.34zm-70.68 0-30.36 30.35 30.36 30.34 30.33-30.34zm-70.71-.01-65.72 65.71 30.36 30.34 30.35-30.34-6.57-6.58 5-5 6.57 6.57 30.35-30.34zm-101.06 101.07 30.35 30.34 30.35-30.34-30.35-30.36zm-35.36 35.34 30.36 30.35 30.35-30.34-30.37-30.36zm0 70.71 30.36 30.34 30.35-30.34-30.35-30.35zm65.71 65.7 30.35-30.35-30.37-30.35-30.33 30.35zm35.34 35.35 30.36-30.35-30.36-30.35-30.35 30.35zm35.36 35.35 30.35-30.34-30.35-30.36-30.35 30.36zm35.35 35.35 30.35-30.35-30.34-30.34-30.36 30.35zm35.34 35.35 30.36-30.34-30.33-30.35-30.37 30.35zm65.72-65.7-30.35-30.34-30.36 30.34 30.36 30.35zm70.7-70.7-30.34-30.35-30.37 30.35 29.73 29.73-4.99 5.01-29.72-29.74-30.37 30.36 30.35 30.34zm35.34-35.35-30.32-30.35-30.37 30.35 30.37 30.35zm-60.69-70.7 30.37 30.35 30.32-30.35-30.32-30.35zm-70.71-70.71 30.37 30.35 29.72-29.74 4.99 5.01-29.71 29.73 30.35 30.35 30.34-30.34-65.71-65.71zm-4.99-5.01 30.35-30.34-30.35-30.35-30.36 30.35zm-65.71 5.01 30.36 30.34 30.34-30.34-30.34-30.35zm-5-5.01 30.35-30.34-30.34-30.35-30.36 30.35zm-35.35 35.36 30.35-30.35-30.34-30.35-30.36 30.36zm-35.35 35.35 30.35-30.34-30.35-30.36-30.36 30.36zm-5 5.01-30.35-30.35-30.35 30.35 30.35 30.34zm35.35 35.35-30.36-30.35-30.35 30.35 30.36 30.34zm35.35 35.35-30.35-30.35-30.35 30.35 30.35 30.35zm35.35 35.35-30.35-30.35-30.35 30.35 30.35 30.35zm5.02 5.01-30.37 30.35 30.36 30.34 30.34-30.34zm35.34-35.36-30.36 30.35 30.36 30.35 30.35-30.35zm35.36-35.35-30.37 30.35 30.37 30.35 30.33-30.35zm5-5 30.35 30.34 30.34-30.34-30.34-30.35zm-35.37-35.35 30.37 30.35 30.33-30.35-30.33-30.35zm-4.99-5.01 30.35-30.34-30.35-30.36-30.36 30.35zm-65.71 5.01 30.36 30.34 30.34-30.34-30.34-30.35zm-5-5.01 30.35-30.35-30.35-30.35-30.35 30.35zm-5 5.01-30.35-30.35-30.35 30.35 30.35 30.34zm35.35 35.35-30.35-30.36-30.35 30.36 30.35 30.34zm40.36 30.34 30.35-30.34-30.35-30.35-30.36 30.35zm-35.34-25.34-30.37 30.35 30.36 30.35 30.34-30.35zm207.09-5-30.34-30.35-30.37 30.35 30.37 30.34zm5.02-5.01 100.46-100.44 4.97 5.01-100.44 100.44 29.74 29.73-5.01 5.01-29.72-29.73-30.37 30.34 65.1 65.08-5.01 5.01-65.08-65.09-30.37 30.35 100.46 100.44-5.01 5.01-100.42-100.44-65.73 65.69 29.73 29.74-4.99 5.01-29.72-29.74-30.37 30.35 65.08 65.08-4.99 5.01-65.08-65.08-30.36 30.34 100.43 100.44-4.99 5.01-100.42-100.44-6.58 6.57-5.01-5.02 6.57-6.56-30.35-30.34-41.92 41.92-5-5.02 41.92-41.91-30.35-30.35-77.28 77.28-5-5.02 77.28-77.27-30.35-30.34-112.63 112.63-5-5.02 112.63-112.61-30.37-30.36-6.57 6.58-4.99-5 6.58-6.58-30.37-30.35-41.93 41.93-4.98-5 41.92-41.93-30.36-30.35-77.27 77.28-5-5 77.29-77.28-6.58-6.57 5-5.01 6.58 6.58 30.34-30.35-30.36-30.35-147.97 147.98-5.01-5 147.98-147.99-6.56-6.57 5-5.01 6.56 6.57 30.36-30.34-41.92-41.93 5-5 41.91 41.92 30.35-30.34-77.26-77.28 5-5.01 77.26 77.28 65.72-65.7-6.57-6.57 5-5.01 6.57 6.57 29.73-29.73 5 5-29.73 29.74 30.36 30.35 30.34-30.35-77.27-77.28 5-5 77.29 77.27 29.72-29.73 5.01 5-29.74 29.74 30.35 30.35 30.35-30.35-147.98-147.98 5-5 147.97 147.97 29.74-29.73 4.99 5-29.73 29.74 30.37 30.35 65.07-65.09 5.02 5-65.1 65.1 101.07 101.06 29.76-29.75 4.97 5.01-29.74 29.74 29.74 29.73-5.01 5.01-29.72-29.74-30.35 30.35 30.35 30.34"/></g><path fill="#ed699f" d="M504.428 137.727c-1.03 0-1.993.4-2.72 1.127l-18.311 18.313a3.81 3.81 0 0 0-1.128 2.717c0 1.027.4 1.992 1.128 2.719l18.31 18.31a3.814 3.814 0 0 0 2.72 1.126c1.026 0 1.99-.398 2.718-1.125l18.31-18.311a3.825 3.825 0 0 0 1.127-2.72 3.82 3.82 0 0 0-1.126-2.716l-18.31-18.313a3.819 3.819 0 0 0-2.718-1.127zm0 45.316a4.817 4.817 0 0 1-3.43-1.42l-18.31-18.312a4.807 4.807 0 0 1-1.42-3.427c0-1.296.502-2.513 1.42-3.43l18.31-18.31a4.822 4.822 0 0 1 3.43-1.42c1.293 0 2.512.505 3.428 1.42l18.309 18.31a4.814 4.814 0 0 1 1.422 3.43 4.81 4.81 0 0 1-1.422 3.427l-18.31 18.312a4.818 4.818 0 0 1-3.427 1.42"/><path fill="#ef95b8" d="M443.43 182.273a1.615 1.615 0 1 1-3.231 0v-49.776a1.615 1.615 0 1 1 3.23 0v49.776"/><path fill="#ef95b8" d="M441.83 173.406c9.422-.022 17.078 7.598 17.1 17.019.023 9.423-7.595 17.08-17.018 17.102-9.422.023-17.078-7.596-17.102-17.018-.023-9.424 7.599-17.08 17.02-17.103"/><path fill="#e4eae6" d="M441.83 176.233c7.865-.02 14.255 6.338 14.27 14.205.023 7.862-6.337 14.256-14.201 14.273-7.864.019-14.254-6.341-14.273-14.205-.02-7.863 6.34-14.256 14.204-14.273"/><path fill="#c7ddce" d="M431.924 182.966a1.881 1.881 0 1 1 .008 3.762 1.881 1.881 0 0 1-.01-3.762m.015 5.64a1.88 1.88 0 1 1-1.875 1.884 1.876 1.876 0 0 1 1.875-1.884m.013 5.64a1.883 1.883 0 0 1 1.886 1.877 1.88 1.88 0 1 1-3.761.008 1.881 1.881 0 0 1 1.875-1.885m5.08-14.12a1.88 1.88 0 0 1 1.884 1.876 1.878 1.878 0 0 1-1.875 1.885 1.878 1.878 0 0 1-1.885-1.874 1.882 1.882 0 0 1 1.876-1.887m.014 5.64a1.88 1.88 0 1 1 .01 3.76 1.88 1.88 0 0 1-.011-3.76m.013 5.653a1.879 1.879 0 1 1-1.876 1.887 1.879 1.879 0 0 1 1.876-1.887m.014 5.64a1.882 1.882 0 0 1 1.885 1.876 1.88 1.88 0 1 1-1.885-1.876m4.76-14.12a1.884 1.884 0 0 1 1.885 1.876 1.884 1.884 0 0 1-1.876 1.887 1.883 1.883 0 0 1-1.887-1.877 1.884 1.884 0 0 1 1.878-1.886m.013 5.64a1.881 1.881 0 1 1 .008 3.762 1.881 1.881 0 0 1-.008-3.762m.013 5.654a1.88 1.88 0 1 1 .008 3.76 1.88 1.88 0 0 1-.008-3.76m.014 5.639a1.88 1.88 0 1 1 .01 3.76 1.88 1.88 0 0 1-.01-3.76m-.054-22.572a1.881 1.881 0 1 1 .006 3.762 1.881 1.881 0 0 1-.006-3.762m9.96 5.626a1.882 1.882 0 1 0 .009 3.763 1.882 1.882 0 0 0-.01-3.763m.014 5.64a1.882 1.882 0 1 0 .008 3.763 1.882 1.882 0 0 0-.008-3.763m.014 5.64a1.88 1.88 0 1 0 .012 3.76 1.88 1.88 0 0 0-.012-3.76m-5.147-14.093a1.877 1.877 0 0 0-1.876 1.882 1.878 1.878 0 0 0 1.884 1.876 1.88 1.88 0 1 0-.008-3.758m.013 5.64a1.878 1.878 0 0 0-1.874 1.884 1.879 1.879 0 1 0 3.757-.01 1.876 1.876 0 0 0-1.883-1.874m.014 5.64a1.879 1.879 0 0 0-1.876 1.885 1.879 1.879 0 0 0 1.885 1.874 1.875 1.875 0 0 0 1.875-1.883 1.88 1.88 0 0 0-1.884-1.876m.013 5.639a1.88 1.88 0 1 0 1.885 1.877 1.882 1.882 0 0 0-1.885-1.877"/><path fill="#ef95b8" d="m467.842 159.487 9.64.003-.005 29.84s-11.776 3.419-15.393-5.236l.005-24.608h5.753"/><path fill="#ed699f" d="M467.296 158.114a2.75 2.75 0 0 1 5.5 0l-.004 22.94a2.75 2.75 0 0 1-5.5-.002l.004-22.94"/><path fill="#ef95b8" d="m467.149 151.967 5.753.003-.003 7.564-5.753-.001.003-7.565"/><path fill="#62c5c0" d="m467.162 132.74-.014 19.219 5.753.003.013-19.218s.428-2.983-2.873-2.984c-3.303-.003-2.88 2.98-2.88 2.98"/><path fill="#ef95b8" d="M409.084 184.926a2.536 2.536 0 1 1-5.07 0v-51.777a2.535 2.535 0 1 1 5.07 0v51.777"/><path fill="#ef95b8" d="M415.35 194.673a8.807 8.807 0 0 1-8.806 8.806 8.806 8.806 0 0 1-8.808-8.806v-8.458a8.806 8.806 0 0 1 8.808-8.806 8.807 8.807 0 0 1 8.806 8.806v8.458"/><path fill="#ed699f" d="M413.75 193.899a7.2 7.2 0 0 1-14.398 0v-6.913a7.199 7.199 0 0 1 14.398 0v6.913"/><path fill="#ef95b8" d="M382.51 184.926a2.536 2.536 0 1 1-5.07 0v-51.777a2.535 2.535 0 0 1 5.07 0v51.777"/><path fill="#ef95b8" d="M379.978 177.406a8.806 8.806 0 0 0-8.808 8.807v13.78c0 .969.71 1.753 1.58 1.753.876 0 1.585-.784 1.585-1.752v-10.467h1.652v10.467c0 .968.708 1.752 1.582 1.752.874 0 1.582-.784 1.582-1.752v-10.467h1.652v10.467c0 .968.708 1.752 1.583 1.752.873 0 1.58-.784 1.58-1.752v-10.467h1.653v10.467c0 .968.71 1.752 1.584 1.752.872 0 1.58-.784 1.58-1.752v-13.781a8.806 8.806 0 0 0-8.805-8.807"/><path fill="#ccdfe0" d="M298.647 194.939v-11.792c0-11.153-9.848-20.227-21.952-20.227-12.105 0-21.953 11.962-21.953 26.666v31.62h-6.482v10.524c-1.784 1.138-3.197 2.603-4.092 4.275h-3.95l1.254-20.89h-9.318l1.254 20.89h-1.476a3.777 3.777 0 1 0 0 7.554h11.86c.843 2 2.41 3.75 4.468 5.063v10.08h18.18v-10.008c3.224-2.014 5.287-5.081 5.287-8.52 0-3.438-2.063-6.505-5.288-8.518v-10.45h-6.364v-31.621c0-11.764 7.456-21.333 16.62-21.333 9.163 0 16.618 6.68 16.618 14.894v11.792h-1.43v8.592h8.396v-8.592h-1.633"/><path fill="#f7f3f0" d="M383.244 307.11c0 8.835-7.163 16-16 16H187.25c-8.836 0-16-7.165-16-16v-36.333c0-8.835 7.164-16 16-16h179.996c8.836 0 16 7.165 16 16v36.333"/><path fill="#fff" d="M187.249 254.778c-8.836 0-16 7.163-16 16v36.332c0 2.346.518 4.568 1.425 6.576a15.928 15.928 0 0 0 6.576 1.423h179.994c8.836 0 16-7.163 16-16v-36.332a15.93 15.93 0 0 0-1.424-6.575 15.93 15.93 0 0 0-6.576-1.424H187.249"/><path fill="#47271f" d="M521.08 136.82s-.642-26.451 27.274-24.41c27.912 2.046 39.66 22.812 42.764 45.103 3.102 22.293 10.006 30.76 20.338 38.585 0 0-34.81 5.434-51.728-21.318-10.128-16.017-38.647-37.96-38.647-37.96"/><path fill="#fab78a" d="M540.534 240.31H524.47l-16.645 42.912 24.68 28.026 24.675-30.654-16.646-40.283"/><path fill="#fab78a" d="M576.72 197.792c0-44.31-44.522-42.432-44.534-42.43-.023-.002-44.548-2.794-44.548 42.43 0 0-.066 26.098 6.945 35.862 9.214 12.832 26.085 19.542 37.6 19.542 11.503 0 28.534-5.86 37.59-19.542 7.155-10.792 6.947-35.862 6.947-35.862"/><path fill="#fab78a" d="M575.586 203.086s2.754-5.402 5.823-1.736c3.076 3.652 2.464 18.563-7.293 18.58 0 0 1.42-13.298 1.47-16.844"/><path fill="#f4a36c" d="M575.626 208.539s1.978-5.31 3.94-2.57c1.968 2.727.967 6.274-1.966 8.678 0 0 1.329-9.648-1.974-6.108"/><path fill="#fab78a" d="M488.082 203.086s-2.76-5.402-5.833-1.736c-3.072 3.652-2.087 18.563 7.677 18.58 0 0-1.804-13.298-1.844-16.844"/><path fill="#f4a36c" d="M488.028 208.539s-1.977-5.31-3.94-2.57c-1.96 2.727-.967 6.274 1.973 8.678 0 0-1.328-9.648 1.967-6.108m44.933 17.719c0 1.826-2.34 3.29-5.218 3.29-2.882 0-5.22-1.464-5.22-3.29 0-1.816 2.338-3.286 5.22-3.286 2.878 0 5.218 1.47 5.218 3.286"/><path fill="#5d7283" d="M556.627 214.725c0 3.039-1.85 5.512-4.135 5.512-2.28 0-4.137-2.473-4.137-5.512 0-3.052 1.857-5.518 4.137-5.518 2.285 0 4.135 2.466 4.135 5.518m-49.6 0c0 3.039-1.85 5.512-4.13 5.512-2.286 0-4.141-2.473-4.141-5.512 0-3.052 1.855-5.518 4.14-5.518 2.28 0 4.132 2.466 4.132 5.518"/><path fill="#fc9c5b" d="M513.24 234.964c8.536 6.837 19.933 6.015 28.7.192 1.319-.88.08-3.022-1.252-2.138-7.75 5.153-18.096 6.29-25.702.198-1.228-.99-2.99.753-1.745 1.749"/><path fill="#60352a" d="M544.774 198.432s.736-.862 2.166-1.577c.714-.356 1.579-.71 2.558-.912.98-.24 2.062-.284 3.154-.256 1.079.124 2.18.305 3.139.74.96.384 1.784.947 2.384 1.519 1.242 1.108 1.52 2.277 1.56 2.226-.034.044-1.07-.357-2.44-.672a27.116 27.116 0 0 0-2.28-.446c-.398-.102-.843-.071-1.258-.16-.424-.08-.878-.063-1.313-.11-1.77-.134-3.626-.13-5.097-.197-1.47-.036-2.573-.155-2.573-.155m-34.4 0s-.74-.862-2.165-1.577a10.531 10.531 0 0 0-2.561-.912c-.98-.24-2.055-.284-3.15-.256-1.085.124-2.182.305-3.143.74a7.517 7.517 0 0 0-2.383 1.519c-1.248 1.108-1.52 2.277-1.558 2.226.033.044 1.058-.357 2.44-.672a26.69 26.69 0 0 1 2.28-.446c.394-.102.835-.071 1.258-.16.423-.08.873-.063 1.316-.11 1.767-.134 3.62-.13 5.092-.197 1.468-.036 2.575-.155 2.575-.155"/><path fill="#60352a" d="M488.082 203.086s7.625-19.168 11.855-24.784c0 0 12.988 11.1 35.112 12.395 0 0-5.898-15.248-8.003-18.06 0 0 27.758 26.865 49.604 28.898l4.76-.185s17.193-65.536-49.335-65.536c-66.103 0-49.826 65.536-49.826 65.536l5.833 1.736"/><path fill="#f1586c" d="m588.186 271.644-38.787-9.884c-4.353 19.232-12.878 19.846-16.542 19.758v-.03s-.13.01-.346.02c-.216-.01-.346-.02-.346-.02v.03c-3.664.088-11.648-.526-16.003-19.758l-39.33 9.884 7.398 31.962s-4.443 22.12 6.613 38.264c11.054 16.138 5.105 47.818 5.105 47.818h73.124s-5.95-31.68 5.102-47.818c11.059-16.143 6.612-38.264 6.612-38.264l7.4-31.962"/><path fill="#f1586c" d="M476.829 271.644s-10.92 5.168-19.364 18.5l26.76 13.462-7.396-31.962m111.277 0s19.4 10.366 20.262 33.61l-27.662-1.648 7.4-31.962"/><path fill="#f0e6fc" d="m562.947 378.148-.082-.007 8.85-70.35h.002l6.918-38.82-10.3-2.635-15.18 41.455h-42.35l-14.965-40.935-10.298 2.633 6.7 38.302 11.3 71.083c-5.071 4.684-31.885 32.603-31.885 99.35h123.997c0-73.714-32.71-100.076-32.71-100.076"/><path fill="#ef95b8" d="m481.642 361.215 3.416-7.372 9.692 4.493-3.416 7.37-9.692-4.491"/><path fill="#62c5c0" d="m457.029 349.802 24.618 11.42 1.708-3.686 1.708-3.686-24.618-11.421s-3.57-2.317-5.53 1.916c-1.963 4.23 2.114 5.457 2.114 5.457"/><path fill="#ef95b8" d="M534.974 380.28c-.532-1.581-2.01-4.027-6.1-6.28-4.324-2.388-16.24-5.797-24.942-8.11zm-.885 1.94-31.057-14.392c7.39 5.147 17.692 12.037 22.31 13.796 4.399 1.674 7.212 1.22 8.747.597zm-1.308 2.569c-1.976.31-4.68.17-8.2-1.17-6.115-2.33-20.95-12.682-28.146-17.83a143.373 143.373 0 0 0 7.274 8.023c7.53 7.668 14.112 12.312 19.03 13.429 4.71 1.065 8.006-.65 10.042-2.452zm3.318-7.158c.06-2.72-.764-6.343-4.618-9.246-4.027-3.03-11.813-5.05-22.514-5.842-4.164-.31-8.03-.376-10.86-.367 8.58 2.163 26.07 6.795 31.799 9.956 3.299 1.819 5.153 3.79 6.193 5.499zm-44.65-14.627.554-.422-.081-.063.49-.66.346-1.001.04.01-.036-.696.616-.032c1.173-.058 28.858-1.382 39.385 6.542 7.348 5.527 5.334 13.45 4.698 15.378l.018.012-.122.296-.044.112-.136.34-.055.009c-.877 1.452-5.703 8.567-14.853 6.49-5.373-1.217-12.038-5.823-19.814-13.692-5.776-5.846-10.15-11.507-10.63-12.133l-.375-.49"/><path fill="#fff" d="M573.16 353.095a12.42 12.42 0 0 0-8.944 3.793c-2.933-3.294-7.192-5.38-11.95-5.38-5.132 0-9.688 2.425-12.616 6.183a15.93 15.93 0 0 0-8.825-2.66c-8.392 0-15.261 6.464-15.936 14.682-2.338-2.685-5.776-4.39-9.617-4.39a12.75 12.75 0 0 0-10.59 5.636 9.434 9.434 0 0 0-6.15-2.272 9.48 9.48 0 0 0-9.48 9.48 9.48 9.48 0 0 0 9.48 9.482 9.436 9.436 0 0 0 6.223-2.34c2.3 3.344 6.15 5.54 10.517 5.54 6.279 0 11.485-4.537 12.552-10.508 2.902 4.05 7.638 6.697 13 6.697 5.135 0 9.69-2.425 12.62-6.182a15.935 15.935 0 0 0 8.823 2.657c5.825 0 10.908-3.121 13.707-7.772a12.403 12.403 0 0 0 7.186 2.29c6.886 0 12.467-5.583 12.467-12.468 0-6.887-5.58-12.468-12.467-12.468"/><path fill="#ad8dd0" d="m532.64 366.214-.143.028-67.035 11.189c18.188 42.079 57.723 40.925 57.723 40.925l17.523-2.926.146-.022 17.525-2.928s37.767-11.753 41.297-57.455l-67.035 11.19"/><path fill="#956fc6" d="M565.706 411.64c.39 2.326-.766 4.458-2.586 4.762l-43.151 7.203c-1.816.304-3.607-1.338-3.993-3.662-.39-2.324.77-4.457 2.589-4.76l43.148-7.205c1.82-.303 3.606 1.338 3.994 3.662"/><path fill="#fab78a" d="m604.319 305.004-21.565-1.285c4.46 14.652 8.499 28.695 11.945 43.616a181.34 181.34 0 0 1 1.215 5.716c.133.683.245 1.368.36 2.054.045.318.166 1.13.188 1.367.024.26 0 1.1.042 1.246-.176.657-.41 1.304-.637 1.938-.123.34-1.997 3.342-2.854 4.427-8.06 10.205-20.78 17.797-33.777 19.16-5.418.57-10 4.12-10 10 0 5.02 4.568 10.57 10 10 25.329-2.658 60.955-22.798 56.477-52.586-2.3-15.315-6.754-30.73-11.394-45.654m-140.077 24.693c-6.306-.596-12.758-.102-19.082-.063-.162 0-.324-.005-.486-.005 3.809-3.384 7.77-6.602 11.714-9.818 7.409-6.043 15.652-11.823 22.2-18.956l-.025-.02s-17.01-8.84-18.87-9.606a261.581 261.581 0 0 1-3.345 2.884c-5.001 4.249-10.145 8.329-15.23 12.475-8.22 6.705-20.427 14.687-23.99 25.26-5.42 16.08 16.39 17.71 26.56 17.786 5.8.043 11.603-.221 17.4-.063-.223 1.252-.58 2.49-.953 3.683-3.86 12.343 15.448 17.583 19.284 5.318 1.846-5.896 2.858-13.017.674-18.926-2.723-7.37-8.68-9.27-15.85-9.95"/><path fill="#956fc6" d="M159.85 433.374c0-1.491-.663-2.815-1.69-3.738 10.918-5.405 17.35-14.748 21.139-23.935-11.285 14.702-27.57 19.42-27.57 19.42 4.442 10.98-7.584 13.288-7.584 13.288h10.67a5.035 5.035 0 0 0 5.035-5.036"/><path fill="#fbc7bc" d="M.002 536.074h1067.187V427.106H.002Z"/><path fill="#ffdad4" d="M1067.187 536.074H0v23.63h1067.186v-23.63"/><path fill="#f4b6ab" d="M377.178 473.626c0 4.913-36.353 8.894-81.197 8.894s-81.195-3.981-81.195-8.894c0-4.912 36.35-8.894 81.195-8.894 44.844 0 81.197 3.982 81.197 8.894"/><path fill="#abd8d8" d="M289.5 473.492h-55.815v-80.996H289.5v80.996"/><path fill="#ed699f" d="M288.367 389.494h-22.41c.37-.732.597-1.55.597-2.425a5.42 5.42 0 0 0-5.423-5.421 5.42 5.42 0 0 0-5.421 5.42c0 .877.227 1.694.595 2.426h-22.41a4.413 4.413 0 0 0 0 8.826h54.472a4.414 4.414 0 0 0 0-8.826"/><path fill="#fff" d="M259.247 427.32c-7.204-2.63-15.078-2.872-21.538-2.353v42.69h47.783v-40.703c-8.614 1.966-18.747 3.106-26.244.367"/><path fill="#abd8d8" d="M360.112 473.492h-55.816v-80.996h55.816v80.996"/><path fill="#ed699f" d="M358.978 389.494H336.57a5.377 5.377 0 0 0 .594-2.425 5.42 5.42 0 0 0-5.42-5.421 5.42 5.42 0 0 0-5.423 5.42c0 .877.227 1.694.596 2.426h-22.41a4.413 4.413 0 0 0 0 8.826h54.47a4.413 4.413 0 0 0 0-8.826"/><path fill="#cc7962" d="M329.859 441.386c-7.204-2.63-15.078-2.874-21.538-2.354v28.626h47.783v-26.64c-8.615 1.967-18.75 3.104-26.245.368"/><path fill="#e03d87" d="M159.85 464.639c0-1.492-.663-2.816-1.69-3.734 10.918-5.41 17.35-14.752 21.139-23.936-11.285 14.7-27.57 19.417-27.57 19.417 4.442 10.98-7.584 13.292-7.584 13.292h10.67a5.038 5.038 0 0 0 5.035-5.04"/><path fill="#f4b6ab" d="M196.569 495.532c0 4.969-26.591 8.994-59.393 8.994-32.8 0-59.39-4.025-59.39-8.994 0-4.968 26.59-8.997 59.39-8.997 32.802 0 59.393 4.029 59.393 8.997"/><path fill="#ad8dd0" d="M184.729 379.2H89.625s-.295 37.126 26.57 50.436c-1.03.92-1.691 2.244-1.691 3.735a5.035 5.035 0 0 0 5.038 5.035h35.275a5.035 5.035 0 0 0 5.034-5.035c0-1.491-.662-2.815-1.69-3.738 26.866-13.307 26.568-50.432 26.568-50.432"/><path fill="#c9abef" d="M187.889 379.32a3.424 3.424 0 0 1-3.425 3.425H90.13a3.425 3.425 0 1 1 0-6.85h94.334a3.425 3.425 0 0 1 3.425 3.426"/><path fill="#ed699f" d="M184.729 410.467H89.625s-.295 37.125 26.57 50.434a4.986 4.986 0 0 0-1.691 3.734 5.038 5.038 0 0 0 5.038 5.039h35.275a5.038 5.038 0 0 0 5.034-5.04 4.991 4.991 0 0 0-1.69-3.733c26.866-13.31 26.568-50.434 26.568-50.434"/><path fill="#fc97c5" d="M187.889 410.574a3.426 3.426 0 0 1-3.425 3.426H90.13a3.425 3.425 0 0 1 0-6.85h94.334a3.425 3.425 0 0 1 3.425 3.424"/><path fill="#f3b562" d="M184.729 436.334H89.625s-.295 37.125 26.57 50.434a4.993 4.993 0 0 0-1.691 3.736 5.037 5.037 0 0 0 5.038 5.037h35.275a5.037 5.037 0 0 0 5.034-5.037c0-1.49-.662-2.816-1.69-3.737 26.866-13.308 26.568-50.434 26.568-50.434"/><path fill="#f9c78c" d="M187.889 436.44a3.423 3.423 0 0 1-3.425 3.424H90.13a3.422 3.422 0 0 1-3.425-3.424 3.423 3.423 0 0 1 3.425-3.424h94.334a3.424 3.424 0 0 1 3.425 3.424"/><path fill="#ed9935" d="M159.85 490.505c0-1.49-.663-2.816-1.69-3.737 10.918-5.407 17.35-14.75 21.139-23.934-11.285 14.7-27.57 19.418-27.57 19.418 4.442 10.98-7.584 13.29-7.584 13.29h10.67a5.037 5.037 0 0 0 5.035-5.037"/><path fill="#f4b6ab" d="M851.166 452.586c0 5.31-41.766 9.61-93.288 9.61s-93.287-4.3-93.287-9.61c0-5.308 41.765-9.612 93.287-9.612 51.522 0 93.288 4.304 93.288 9.612"/><path fill="#ad8dd0" d="M730.982 396.347a2.493 2.493 0 1 1-4.986 0V326.55a2.492 2.492 0 0 1 2.493-2.494 2.492 2.492 0 0 1 2.493 2.494v69.796"/><path fill="#ed699f" d="M818.194 332.056c11.47-4.28 19.615-14.62 19.615-26.626 0-15.801-14.102-28.73-31.338-28.73h-94.927c-17.236 0-31.338 12.929-31.338 28.73 0 15.802 14.102 28.73 31.338 28.73h41.313c5.972 10.057 12.9 24.23 14.455 37.925 2.05 18.052-4.02 31.462-13.944 41.46h-47.824c-11.47 0-20.851 8.603-20.851 19.115 0 10.514 9.382 19.117 20.85 19.117h108.06s41.193-5.252-.711-64.028c-16.854-23.64 5.288-55.672 5.303-55.693"/><path fill="#dd5794" d="M828.554 310.056c0 .592-.482 1.072-1.074 1.072H707.126a1.074 1.074 0 1 1 0-2.146H827.48c.592 0 1.073.48 1.073 1.074"/><path fill="#fced81" d="M815.874 294.924a5.055 5.055 0 1 1-10.11-.001 5.055 5.055 0 0 1 10.11 0"/><path fill="#f3b562" d="M761.594 374.908h-63.017s-.196 24.6 17.607 33.42a3.308 3.308 0 0 0-1.123 2.474 3.34 3.34 0 0 0 3.339 3.338h23.375a3.339 3.339 0 0 0 3.336-3.338 3.32 3.32 0 0 0-1.12-2.476c17.8-8.817 17.604-33.418 17.604-33.418"/><path fill="#f9c78c" d="M763.688 374.988a2.268 2.268 0 0 1-2.27 2.27h-62.51a2.266 2.266 0 0 1-2.266-2.27 2.267 2.267 0 0 1 2.268-2.27h62.509a2.27 2.27 0 0 1 2.27 2.27"/><path fill="#ed9935" d="M745.115 410.8c0-.988-.44-1.865-1.12-2.475 7.234-3.583 11.495-9.774 14.007-15.86-7.48 9.74-18.27 12.868-18.27 12.868 2.945 7.275-5.023 8.806-5.023 8.806h7.07a3.339 3.339 0 0 0 3.336-3.34"/><path fill="#e2dddc" d="M770.74 291.417c0 .606.49 1.096 1.097 1.096h24.074a1.094 1.094 0 1 0 0-2.188h-24.074c-.606 0-1.096.49-1.096 1.092m0 3.507c0 .603.49 1.094 1.096 1.094h24.074a1.094 1.094 0 0 0 0-2.188h-24.074c-.606 0-1.096.49-1.096 1.093m0 3.507c0 .604.49 1.096 1.096 1.096h24.074a1.095 1.095 0 0 0 0-2.19h-24.074c-.606 0-1.096.49-1.096 1.094"/><path fill="#dd5794" d="M684.97 435.64c1.576 9.108 10.21 16.134 20.569 16.134h108.059s14.843-1.9 17.642-16.134H684.977"/><path fill="#f4b6ab" d="M1058.988 482.612c0 4.97-44.72 8.994-99.885 8.994-55.164 0-99.882-4.025-99.882-8.994 0-4.968 44.718-8.997 99.882-8.997s99.885 4.03 99.885 8.997"/><path fill="#83becc" d="M1037.348 482.612H880.792l-11.11-16.033h178.783l-11.11 16.033"/><path fill="#ffca76" d="M1009.335 420.987c-8.84-6.104-36.152-7.867-50.27-7.867-14.12 0-41.43 1.763-50.272 7.867-8.84 6.102-13.59 45.583-13.59 45.583h127.723s-4.75-39.48-13.59-45.583"/><path fill="#ffdca9" d="M896.844 455.679h124.46a236.997 236.997 0 0 0-1.483-7.873H898.329a240.784 240.784 0 0 0-1.484 7.873"/><path fill="#cc7962" d="M900.67 437.906s-1.54 11.948 3.604 10.67c5.144-1.275 10.493-17.521 14.813-17.437 4.32.082 2.88 16.415 10.7 16.162 7.817-.255 8.845-22.2 13.37-21.693 4.53.51 7.817 18.885 14.198 18.12 6.378-.766 9.67-19.157 14.812-18.128 5.144 1.028 12.962 19.873 19.957 16.576 6.994-3.296 6.994-13.503 11.314-11.972 4.32 1.53 11.09 17.676 14.804 10.622 0 0-2.873-16.238-9.25-22.363-6.376-6.125-40.117-7.403-55.753-7.913-15.635-.508-43.737 3.802-48.141 11.997-4.116 7.657-3.123 10.184-4.427 15.36"/><path fill="#f93295" d="M961.617 408.76c0 3.576-2.883 6.476-6.44 6.476-3.555 0-6.437-2.9-6.437-6.476 0-3.577 2.882-6.477 6.438-6.477 3.556 0 6.439 2.9 6.439 6.477"/><path fill="#5ed39d" d="M949.324 394.468c3.146 2.633 5.167 6.693 5.082 10.815-.021 1.002 1.52.999 1.543 0 .094-4.5-2.09-9.03-5.533-11.914-.76-.636-1.858.456-1.092 1.099"/><path fill="#f4b6ab" d="M846.233 513.024c0 4.97-44.72 8.995-99.884 8.995s-99.883-4.025-99.883-8.994c0-4.968 44.719-8.998 99.883-8.998 55.164 0 99.884 4.03 99.884 8.998"/><path fill="#83becc" d="M820.567 513.024H664.01l-11.11-16.032h178.783l-11.11 16.033"/><path fill="#ffccd9" d="M792.567 451.413c-8.838-6.104-36.152-7.867-50.27-7.867-14.12 0-41.43 1.763-50.271 7.867-8.841 6.102-13.59 45.583-13.59 45.583h127.722s-4.75-39.48-13.59-45.583"/><path fill="#fff" d="M688.344 457.013s1.986 3.248 11.986 0c10-3.25 16.889-.975 22.889 0 6 .973 11.04-1.694 18.186-2.583 7.146-.89 20.478 6.275 26.923 4.027 6.445-2.25 14-2.75 18.222-1.832 4.223.916 7.792 3.566 10.23 1.464 0 0 3.569-16.103-54.218-16.103-57.786 0-54.22 15.027-54.22 15.027"/><path fill="#ffe6ed" d="M680.504 483.599h123.573a219.53 219.53 0 0 0-1.574-7.874H682.078a222.647 222.647 0 0 0-1.574 7.874"/><g clip-path="url(#t)" transform="matrix(.13333 0 0 -.13333 199.249 668.434)"><path fill="#fbbbcb" d="M3668 1495h30.641v27.5H3668Z"/></g><path fill="#fbbbcb" d="M704.543 461.906c-.897 0-1.625-.655-1.625-1.46 0-.807.728-1.46 1.625-1.46.9 0 1.628.653 1.628 1.46 0 .805-.728 1.46-1.628 1.46m3.253 8.293c-.898 0-1.626-.655-1.626-1.46 0-.808.728-1.46 1.626-1.46.9 0 1.628.652 1.628 1.46 0 .805-.728 1.46-1.628 1.46m14.587-4.76c-1.128 0-2.043-.82-2.043-1.833 0-1.014.915-1.833 2.043-1.833 1.129 0 2.044.82 2.044 1.833s-.915 1.833-2.044 1.833m14.119 3.667c-1.13 0-2.042-.82-2.042-1.834 0-1.013.913-1.833 2.042-1.833 1.13 0 2.043.82 2.043 1.833 0 1.014-.913 1.834-2.043 1.834m13.467-5.654c-.9 0-1.627-.654-1.627-1.46 0-.806.728-1.46 1.627-1.46.9 0 1.626.654 1.626 1.46 0 .806-.726 1.46-1.626 1.46m10.119 4.907c-.897 0-1.625-.653-1.625-1.46 0-.807.728-1.46 1.625-1.46.9 0 1.628.653 1.628 1.46 0 .807-.728 1.46-1.628 1.46m17.96-3.453c-.897 0-1.625-.654-1.625-1.46 0-.807.728-1.46 1.625-1.46.9 0 1.628.653 1.628 1.46 0 .806-.728 1.46-1.628 1.46m10.173 7.2c-1.128 0-2.043-.82-2.043-1.834 0-1.013.915-1.833 2.043-1.833 1.13 0 2.044.82 2.044 1.833 0 1.014-.915 1.834-2.044 1.834m-99.917 20.879c-1.13 0-2.043-.82-2.043-1.833 0-1.014.913-1.834 2.042-1.834 1.13 0 2.043.82 2.043 1.834 0 1.013-.913 1.833-2.043 1.833m11.253-2.213c-.898 0-1.625-.654-1.625-1.46 0-.807.727-1.46 1.625-1.46.9 0 1.628.653 1.628 1.46 0 .806-.728 1.46-1.628 1.46m11.347 4.04c-.9 0-1.627-.654-1.627-1.46 0-.807.728-1.46 1.627-1.46.9 0 1.628.653 1.628 1.46 0 .806-.728 1.46-1.628 1.46m14.586-4.747c-1.128 0-2.042-.82-2.042-1.833s.914-1.833 2.042-1.833c1.13 0 2.044.82 2.044 1.833s-.915 1.833-2.044 1.833m14.12 3.667c-1.128 0-2.043-.82-2.043-1.834 0-1.013.915-1.833 2.043-1.833 1.13 0 2.042.82 2.042 1.833 0 1.014-.913 1.834-2.042 1.834m13.466-4.2c-.898 0-1.626-.654-1.626-1.46 0-.807.728-1.46 1.626-1.46.9 0 1.628.653 1.628 1.46 0 .806-.728 1.46-1.628 1.46m17.973 3.826c-.897 0-1.625-.653-1.625-1.458 0-.808.728-1.46 1.625-1.46.9 0 1.628.652 1.628 1.46 0 .805-.728 1.458-1.628 1.458m10.106-3.826c-.897 0-1.625-.654-1.625-1.46 0-.807.728-1.46 1.625-1.46.9 0 1.628.653 1.628 1.46 0 .806-.728 1.46-1.628 1.46m16.893 5.28c-1.128 0-2.042-.82-2.042-1.834 0-1.013.914-1.833 2.042-1.833 1.13 0 2.044.82 2.044 1.833 0 1.014-.914 1.834-2.044 1.834"/></svg>